<?xml version="1.0" encoding="utf-8"?>
<svg viewBox="0 0 24 24" fill="none" xmlns="http://www.w3.org/2000/svg">
  <path d="M 3.547 3.669 C 2.889 4.326 2.889 5.393 3.547 6.05 L 9.583 12.088 L 3.547 18.127 C 2.889 18.784 2.889 19.85 3.547 20.507 C 4.204 21.165 5.27 21.165 5.927 20.507 L 11.966 14.471 L 18.004 20.507 C 18.661 21.165 19.728 21.165 20.385 20.507 C 21.043 19.85 21.043 18.784 20.385 18.127 L 14.347 12.088 L 20.385 6.05 C 21.043 5.393 21.043 4.326 20.385 3.669 C 19.728 3.011 18.661 3.011 18.004 3.669 L 11.966 9.707 L 5.927 3.669 C 5.27 3.011 4.204 3.011 3.547 3.669 Z" fill="#0F0F0F" style="opacity: 0.9;" transform="matrix(0.9999999999999999, 0, 0, 0.9999999999999999, -2.220446049250313e-16, 0)"/>
</svg>